<svg xmlns="http://www.w3.org/2000/svg" xmlns:xlink="http://www.w3.org/1999/xlink" width="450" zoomAndPan="magnify" viewBox="0 0 337.5 187.499995" height="250" preserveAspectRatio="xMidYMid meet" version="1.0"><defs><g/><clipPath id="75f4161562"><path d="M 56 12 L 106 12 L 106 62 L 56 62 Z M 56 12 " clip-rule="nonzero"/></clipPath><clipPath id="977a0e1df6"><path d="M 66.511719 5.246094 L 193.394531 50.003906 L 143.105469 192.570312 L 16.222656 147.808594 Z M 66.511719 5.246094 " clip-rule="nonzero"/></clipPath><clipPath id="f206938755"><path d="M 66.511719 5.246094 L 193.394531 50.003906 L 143.105469 192.570312 L 16.222656 147.808594 Z M 66.511719 5.246094 " clip-rule="nonzero"/></clipPath><clipPath id="a9b71414fc"><path d="M 115 125 L 158 125 L 158 168 L 115 168 Z M 115 125 " clip-rule="nonzero"/></clipPath><clipPath id="a2795208e6"><path d="M 66.511719 5.246094 L 193.394531 50.003906 L 143.105469 192.570312 L 16.222656 147.808594 Z M 66.511719 5.246094 " clip-rule="nonzero"/></clipPath><clipPath id="9cae78470e"><path d="M 66.511719 5.246094 L 193.394531 50.003906 L 143.105469 192.570312 L 16.222656 147.808594 Z M 66.511719 5.246094 " clip-rule="nonzero"/></clipPath><clipPath id="805974cdbb"><path d="M 131 45 L 155 45 L 155 69 L 131 69 Z M 131 45 " clip-rule="nonzero"/></clipPath><clipPath id="c1e93237e6"><path d="M 66.511719 5.246094 L 193.394531 50.003906 L 143.105469 192.570312 L 16.222656 147.808594 Z M 66.511719 5.246094 " clip-rule="nonzero"/></clipPath><clipPath id="6a285545ac"><path d="M 66.511719 5.246094 L 193.394531 50.003906 L 143.105469 192.570312 L 16.222656 147.808594 Z M 66.511719 5.246094 " clip-rule="nonzero"/></clipPath><clipPath id="e934473a35"><path d="M 44 79 L 68 79 L 68 103 L 44 103 Z M 44 79 " clip-rule="nonzero"/></clipPath><clipPath id="84362798eb"><path d="M 66.511719 5.246094 L 193.394531 50.003906 L 143.105469 192.570312 L 16.222656 147.808594 Z M 66.511719 5.246094 " clip-rule="nonzero"/></clipPath><clipPath id="7b63bca737"><path d="M 66.511719 5.246094 L 193.394531 50.003906 L 143.105469 192.570312 L 16.222656 147.808594 Z M 66.511719 5.246094 " clip-rule="nonzero"/></clipPath><clipPath id="262cc99ef2"><path d="M 31 133 L 55 133 L 55 157 L 31 157 Z M 31 133 " clip-rule="nonzero"/></clipPath><clipPath id="569ebf2ecd"><path d="M 66.511719 5.246094 L 193.394531 50.003906 L 143.105469 192.570312 L 16.222656 147.808594 Z M 66.511719 5.246094 " clip-rule="nonzero"/></clipPath><clipPath id="ffc8f3b1c7"><path d="M 66.511719 5.246094 L 193.394531 50.003906 L 143.105469 192.570312 L 16.222656 147.808594 Z M 66.511719 5.246094 " clip-rule="nonzero"/></clipPath><clipPath id="57ad3653e7"><path d="M 54 62 L 135 62 L 135 139 L 54 139 Z M 54 62 " clip-rule="nonzero"/></clipPath><clipPath id="7b7f3da8d3"><path d="M 66.511719 5.246094 L 193.394531 50.003906 L 143.105469 192.570312 L 16.222656 147.808594 Z M 66.511719 5.246094 " clip-rule="nonzero"/></clipPath><clipPath id="de4ba75ee9"><path d="M 66.511719 5.246094 L 193.394531 50.003906 L 143.105469 192.570312 L 16.222656 147.808594 Z M 66.511719 5.246094 " clip-rule="nonzero"/></clipPath></defs><g clip-path="url(#75f4161562)"><g clip-path="url(#977a0e1df6)"><g clip-path="url(#f206938755)"><path fill="#056cf2" d="M 73.21875 59.90625 C 86.007812 64.417969 100.082031 57.691406 104.585938 44.917969 C 109.09375 32.140625 102.355469 18.078125 89.566406 13.566406 C 76.777344 9.054688 62.707031 15.777344 58.199219 28.554688 C 53.691406 41.328125 60.429688 55.394531 73.21875 59.90625 Z M 87.3125 19.957031 C 96.570312 23.226562 101.449219 33.40625 98.1875 42.660156 C 94.925781 51.910156 84.738281 56.777344 75.476562 53.511719 C 66.214844 50.246094 61.335938 40.0625 64.597656 30.8125 C 67.863281 21.5625 78.050781 16.691406 87.3125 19.957031 Z M 87.3125 19.957031 " fill-opacity="1" fill-rule="nonzero"/></g></g></g><g clip-path="url(#a9b71414fc)"><g clip-path="url(#a2795208e6)"><g clip-path="url(#9cae78470e)"><path fill="#056cf2" d="M 143.847656 126.765625 C 132.871094 122.894531 120.792969 128.664062 116.925781 139.625 C 113.058594 150.589844 118.84375 162.660156 129.820312 166.53125 C 140.792969 170.402344 152.871094 164.632812 156.738281 153.667969 C 160.605469 142.707031 154.820312 130.636719 143.847656 126.765625 Z M 132.074219 160.136719 C 124.625 157.511719 120.703125 149.324219 123.328125 141.886719 C 125.949219 134.445312 134.144531 130.53125 141.589844 133.160156 C 149.035156 135.785156 152.960938 143.972656 150.335938 151.414062 C 147.710938 158.847656 139.519531 162.765625 132.074219 160.136719 Z M 132.074219 160.136719 " fill-opacity="1" fill-rule="nonzero"/></g></g></g><g clip-path="url(#805974cdbb)"><g clip-path="url(#c1e93237e6)"><g clip-path="url(#6a285545ac)"><path fill="#05c7f2" d="M 138.917969 67.894531 C 144.835938 69.984375 151.351562 66.871094 153.4375 60.957031 C 155.519531 55.046875 152.402344 48.535156 146.484375 46.449219 C 140.566406 44.359375 134.050781 47.472656 131.964844 53.386719 C 129.878906 59.296875 133 65.804688 138.917969 67.894531 Z M 144.230469 52.839844 C 146.617188 53.683594 147.878906 56.3125 147.035156 58.699219 C 146.191406 61.089844 143.5625 62.34375 141.171875 61.5 C 138.785156 60.660156 137.523438 58.03125 138.367188 55.640625 C 139.207031 53.253906 141.839844 52 144.230469 52.839844 Z M 144.230469 52.839844 " fill-opacity="1" fill-rule="nonzero"/></g></g></g><g clip-path="url(#e934473a35)"><g clip-path="url(#84362798eb)"><g clip-path="url(#7b63bca737)"><path fill="#05c7f2" d="M 66.464844 94.601562 C 68.550781 88.6875 65.433594 82.179688 59.515625 80.09375 C 53.59375 78.003906 47.082031 81.117188 44.996094 87.027344 C 42.910156 92.941406 46.03125 99.449219 51.949219 101.539062 C 57.867188 103.625 64.382812 100.515625 66.464844 94.601562 Z M 51.398438 89.285156 C 52.238281 86.898438 54.867188 85.640625 57.257812 86.484375 C 59.648438 87.328125 60.90625 89.957031 60.066406 92.34375 C 59.222656 94.730469 56.59375 95.988281 54.203125 95.144531 C 51.8125 94.300781 50.554688 91.671875 51.398438 89.285156 Z M 51.398438 89.285156 " fill-opacity="1" fill-rule="nonzero"/></g></g></g><g clip-path="url(#262cc99ef2)"><g clip-path="url(#569ebf2ecd)"><g clip-path="url(#ffc8f3b1c7)"><path fill="#05c7f2" d="M 47.015625 134.191406 C 41.097656 132.101562 34.585938 135.214844 32.5 141.125 C 30.414062 147.039062 33.53125 153.550781 39.449219 155.636719 C 45.371094 157.726562 51.882812 154.613281 53.96875 148.699219 C 56.054688 142.789062 52.933594 136.277344 47.015625 134.191406 Z M 41.707031 149.242188 C 39.316406 148.398438 38.054688 145.773438 38.898438 143.382812 C 39.742188 140.996094 42.371094 139.742188 44.761719 140.582031 C 47.152344 141.425781 48.410156 144.054688 47.566406 146.441406 C 46.726562 148.832031 44.097656 150.085938 41.707031 149.242188 Z M 41.707031 149.242188 " fill-opacity="1" fill-rule="nonzero"/></g></g></g><g clip-path="url(#57ad3653e7)"><g clip-path="url(#7b7f3da8d3)"><g clip-path="url(#de4ba75ee9)"><path fill="#d9d9d9" d="M 125.125 126.046875 C 126.734375 125.085938 127.253906 123.003906 126.289062 121.398438 L 119.40625 109.929688 C 121.03125 108.34375 122.335938 106.382812 123.140625 104.097656 C 124.964844 98.925781 123.828125 93.425781 120.636719 89.417969 L 134.253906 72.058594 C 135.410156 70.585938 135.148438 68.453125 133.675781 67.296875 C 132.195312 66.140625 130.066406 66.398438 128.910156 67.875 L 115.347656 85.171875 C 114.832031 84.921875 114.300781 84.691406 113.75 84.496094 C 111.019531 83.535156 108.195312 83.40625 105.546875 83.953125 L 98.628906 64.714844 C 97.992188 62.953125 96.050781 62.035156 94.289062 62.667969 C 92.527344 63.300781 91.609375 65.242188 92.242188 67.003906 L 99.34375 86.753906 C 97.21875 88.359375 95.503906 90.535156 94.433594 93.144531 L 72.847656 90.492188 C 70.988281 90.265625 69.296875 91.589844 69.070312 93.445312 C 68.871094 95.054688 69.835938 96.535156 71.304688 97.054688 C 71.535156 97.136719 71.777344 97.191406 72.027344 97.222656 L 93.289062 99.835938 C 93.429688 102.25 94.148438 104.582031 95.339844 106.648438 L 55.898438 132.613281 C 54.335938 133.644531 53.902344 135.746094 54.9375 137.3125 C 55.359375 137.949219 55.964844 138.402344 56.636719 138.640625 C 57.605469 138.980469 58.714844 138.886719 59.636719 138.277344 L 100.027344 111.6875 C 101.09375 112.410156 102.257812 113.023438 103.527344 113.472656 C 106.929688 114.671875 110.46875 114.589844 113.636719 113.5 L 120.472656 124.886719 C 120.894531 125.589844 121.53125 126.085938 122.25 126.339844 C 123.171875 126.660156 124.226562 126.589844 125.125 126.046875 Z M 105.785156 107.078125 C 101.316406 105.5 98.964844 100.589844 100.539062 96.125 C 102.113281 91.664062 107.027344 89.316406 111.496094 90.890625 C 115.960938 92.464844 118.316406 97.378906 116.742188 101.839844 C 115.167969 106.304688 110.25 108.652344 105.785156 107.078125 Z M 105.785156 107.078125 " fill-opacity="1" fill-rule="nonzero"/></g></g></g><g fill="#020f59" fill-opacity="1"><g transform="translate(136.581674, 108.520422)"><g><path d="M 28.605469 0 L 17.351562 -27.457031 L 11.359375 -27.457031 L 0.101562 0 L 6.859375 0 L 8.632812 -4.457031 L 20.074219 -4.457031 L 21.847656 0 Z M 14.140625 -18.339844 L 14.324219 -19.183594 L 14.382812 -19.183594 L 14.566406 -18.339844 L 17.976562 -9.765625 L 10.734375 -9.765625 Z M 14.140625 -18.339844 "/></g></g></g><g fill="#020f59" fill-opacity="1"><g transform="translate(165.287293, 108.520422)"><g><path d="M 8.632812 0 L 8.632812 -9.621094 C 8.632812 -13.496094 10.511719 -15.613281 13.636719 -15.613281 L 15.714844 -15.613281 L 15.714844 -20.898438 L 13.292969 -20.898438 C 10.855469 -20.898438 9.300781 -19.691406 8.351562 -17.953125 L 8.351562 -20.898438 L 2.402344 -20.898438 L 2.402344 0 Z M 8.632812 0 "/></g></g></g><g fill="#020f59" fill-opacity="1"><g transform="translate(181.526242, 108.520422)"><g><path d="M 12.125 0.664062 C 17.855469 0.664062 21.867188 -3.085938 22.855469 -8.230469 L 16.5625 -8.230469 C 15.816406 -5.890625 14.101562 -5.042969 12.144531 -5.042969 C 9.683594 -5.042969 7.34375 -6.960938 7.34375 -10.449219 C 7.34375 -13.921875 9.664062 -15.816406 12.144531 -15.816406 C 14.101562 -15.816406 15.796875 -14.988281 16.5625 -13.011719 L 22.855469 -13.011719 C 21.789062 -17.855469 17.855469 -21.566406 12.125 -21.566406 C 5.667969 -21.566406 1.191406 -16.503906 1.191406 -10.449219 C 1.191406 -4.359375 5.667969 0.664062 12.125 0.664062 Z M 12.125 0.664062 "/></g></g></g><g fill="#020f59" fill-opacity="1"><g transform="translate(205.2694, 108.520422)"><g><path d="M 8.613281 0 L 8.613281 -10.371094 C 8.613281 -13.679688 10.773438 -15.875 13.132812 -15.875 C 15.453125 -15.875 17.027344 -14.546875 17.027344 -11.074219 L 17.027344 0 L 23.242188 0 L 23.242188 -11.214844 C 23.242188 -17.671875 20.578125 -21.566406 14.886719 -21.566406 C 12.003906 -21.566406 9.824219 -20.4375 8.472656 -18.539062 L 8.613281 -20.960938 L 8.613281 -28.425781 L 2.402344 -28.425781 L 2.402344 0 Z M 8.613281 0 "/></g></g></g><g fill="#020f59" fill-opacity="1"><g transform="translate(230.848265, 108.520422)"><g><path d="M 13.980469 0 C 22.777344 0 28.625 -5.488281 28.625 -13.738281 C 28.625 -21.949219 22.734375 -27.4375 13.921875 -27.4375 L 2.804688 -27.4375 L 2.804688 0 Z M 9.117188 -21.769531 L 13.738281 -21.769531 C 19.246094 -21.769531 22.191406 -18.558594 22.191406 -13.65625 C 22.191406 -8.675781 19.085938 -5.667969 13.757812 -5.667969 L 9.117188 -5.667969 Z M 9.117188 -21.769531 "/></g></g></g><g fill="#020f59" fill-opacity="1"><g transform="translate(260.522169, 108.520422)"><g><path d="M 12.285156 0.664062 C 18.921875 0.664062 23.503906 -4.296875 23.503906 -10.449219 C 23.503906 -16.5625 18.921875 -21.566406 12.304688 -21.566406 C 5.730469 -21.566406 1.191406 -16.542969 1.191406 -10.449219 C 1.191406 -4.316406 5.75 0.664062 12.285156 0.664062 Z M 12.347656 -5.0625 C 9.421875 -5.0625 7.34375 -7.261719 7.34375 -10.449219 C 7.34375 -13.617188 9.421875 -15.835938 12.347656 -15.835938 C 15.273438 -15.835938 17.351562 -13.617188 17.351562 -10.449219 C 17.351562 -7.261719 15.273438 -5.0625 12.347656 -5.0625 Z M 12.347656 -5.0625 "/></g></g></g><g fill="#020f59" fill-opacity="1"><g transform="translate(285.21344, 108.520422)"><g><path d="M 12.125 0.664062 C 17.855469 0.664062 21.867188 -3.085938 22.855469 -8.230469 L 16.5625 -8.230469 C 15.816406 -5.890625 14.101562 -5.042969 12.144531 -5.042969 C 9.683594 -5.042969 7.34375 -6.960938 7.34375 -10.449219 C 7.34375 -13.921875 9.664062 -15.816406 12.144531 -15.816406 C 14.101562 -15.816406 15.796875 -14.988281 16.5625 -13.011719 L 22.855469 -13.011719 C 21.789062 -17.855469 17.855469 -21.566406 12.125 -21.566406 C 5.667969 -21.566406 1.191406 -16.503906 1.191406 -10.449219 C 1.191406 -4.359375 5.667969 0.664062 12.125 0.664062 Z M 12.125 0.664062 "/></g></g></g></svg>